<?xml version="1.0" encoding="utf-8"?>
<!-- Generator: Adobe Illustrator 24.1.2, SVG Export Plug-In . SVG Version: 6.00 Build 0)  -->
<svg version="1.1" id="Layer_1" xmlns="http://www.w3.org/2000/svg" xmlns:xlink="http://www.w3.org/1999/xlink" x="0px" y="0px"
	 viewBox="0 0 354 92" style="enable-background:new 0 0 354 92;" xml:space="preserve">
<style type="text/css">
	.st0{fill:#F2F2F2;}
	.st1{font-family:'NewsGothicBT-Bold';}
	.st2{font-size:50px;}
</style>
<text transform="matrix(1 0 0 1 82.3687 66.3101)" class="st0 st1 st2">LaunchPilot</text>
<path class="st0" d="M33.52,18.6c-5.2,0-10.4,0.02-15.6-0.02c-0.88-0.01-1.17,0.33-1.16,1.24c0.03,3.07,0.01,6.15,0.01,9.22
	c0,1.7,0.03,1.73,1.63,1.73c9.62,0,19.24,0,28.86,0.01c0.72,0,1.44,0.03,2.16,0.11c2.45,0.26,4.23,2.32,4.24,4.93
	c0.01,8.99,0.02,17.99-0.01,26.98c-0.01,2.09-0.94,3.6-2.77,4.47c-1.06,0.5-2.16,0.54-3.27,0.54c-5.47,0.01-10.94,0.01-16.42,0
	c-0.63,0-1.27,0-1.89-0.13c-0.86-0.18-1.59-0.64-1.84-1.63c-0.23-0.93,0.01-1.72,0.71-2.34c0.21-0.18,0.39-0.41,0.57-0.62
	c2.52-3.08,5.04-6.15,7.56-9.23c0.22-0.27,0.48-0.65,0.8-0.52c0.34,0.14,0.23,0.62,0.23,0.97c0.01,2.59,0,5.18,0.01,7.76
	c0,1.16,0.12,1.28,1.2,1.29c3.16,0.01,6.31,0.01,9.47,0c1.36,0,1.37-0.02,1.37-1.45c0-8.44,0-16.89,0-25.33c0-1.46,0-1.46-1.35-1.46
	c-9.86,0-19.72,0-29.59,0c-1.7,0-1.69,0-1.69,1.77c0.01,3.11,0.02,6.21,0,9.32c-0.01,0.87,0.28,1.21,1.11,1.19
	c2.22-0.04,4.45-0.02,6.67-0.01c0.37,0,0.91-0.21,1.09,0.18c0.21,0.46-0.37,0.65-0.61,0.94c-0.16,0.19-0.32,0.38-0.48,0.58
	c-1.73,2.23-3.56,4.37-5.39,6.51c-1.06,1.24-2.15,2.46-3.04,3.83c-1.8,2.76-2.45,5.87-1.96,9.22c0.57,3.98,2.51,6.97,5.67,9.11
	c2.48,1.68,5.21,2.24,8.09,2.24c6.71,0,13.41-0.01,20.12,0.01c1.39,0,2.77-0.1,4.12-0.4c5.16-1.13,9.23-4,11.79-9
	c1.36-2.65,2.08-5.53,2.06-8.63c-0.06-8.35-0.06-16.69,0-25.04c0.02-3.02-0.67-5.81-1.82-8.51c-0.96-2.25-2.47-4.06-4.24-5.59
	c-3.57-3.09-7.73-4.29-12.27-4.25C42.96,18.64,38.24,18.6,33.52,18.6z"/>
</svg>
